<?xml version="1.0" standalone="no"?>
<svg viewBox="0 0 200 200" xmlns="http://www.w3.org/2000/svg">
  <path fill="#FA4D56" d="M32.1,-53.9C46.2,-47.5,65.2,-48.1,77.2,-40.3C89.1,-32.4,94,-16.2,88.7,-3.1C83.4,10.1,67.9,20.2,57.3,30.3C46.6,40.4,40.8,50.5,32.1,61.4C23.3,72.4,11.7,84.2,-1.1,86C-13.8,87.9,-27.6,79.9,-40.7,71.4C-53.7,62.9,-66,54.1,-68.5,42.1C-70.9,30.1,-63.5,15.1,-61.9,0.9C-60.3,-13.2,-64.4,-26.4,-61.3,-37.2C-58.2,-48,-47.9,-56.5,-36.4,-64.4C-25,-72.3,-12.5,-79.7,-1.7,-76.7C9,-73.7,18.1,-60.3,32.1,-53.9Z" transform="translate(100 100)" />
</svg>
